<svg width="57" height="28" viewBox="0 0 57 28" fill="none" xmlns="http://www.w3.org/2000/svg">
<rect x="18.2148" y="4.89209" width="3.35557" height="16.2985" fill="black"/>
<rect x="18.2148" y="0.0983887" width="3.35557" height="3.35557" fill="black"/>
<path fill-rule="evenodd" clip-rule="evenodd" d="M16.2985 13.0411C16.2985 17.5418 12.6499 21.1903 8.14924 21.1903C6.35748 21.1903 4.70077 20.6121 3.35557 19.632V27.9015H0V13.0411V4.89187H3.35557V6.45017C4.70077 5.4701 6.35748 4.89185 8.14924 4.89185C12.6499 4.89185 16.2985 8.54038 16.2985 13.0411ZM3.35557 13.0722V13.0098C3.37235 10.3767 5.51208 8.24736 8.14914 8.24736C10.7966 8.24736 12.9428 10.3936 12.9428 13.041C12.9428 15.6885 10.7966 17.8347 8.14914 17.8347C5.51208 17.8347 3.37235 15.7053 3.35557 13.0722Z" fill="black"/>
<path fill-rule="evenodd" clip-rule="evenodd" d="M38.6964 17.1227C37.2864 19.5547 34.6549 21.1903 31.6414 21.1903C27.1407 21.1903 23.4922 17.5418 23.4922 13.0411C23.4922 8.54038 27.1407 4.89185 31.6414 4.89185C34.6549 4.89185 37.2864 6.52753 38.6964 8.9595L35.7433 10.5591C34.903 9.17335 33.3803 8.24739 31.6413 8.24739C28.9939 8.24739 26.8477 10.3936 26.8477 13.0411C26.8477 15.6885 28.9939 17.8347 31.6413 17.8347C33.3803 17.8347 34.903 16.9088 35.7432 15.5231L38.6964 17.1227Z" fill="black"/>
<rect width="3.35557" height="3.35557" rx="1.67778" transform="matrix(-1 0 0 1 54.6484 17.835)" fill="black"/>
<path fill-rule="evenodd" clip-rule="evenodd" d="M55.9563 14.4794C56.0387 14.0122 56.0836 13.5319 56.0836 13.0413C56.0836 8.54071 52.436 4.89209 47.9344 4.89209C43.4328 4.89209 39.7852 8.54071 39.7852 13.0413C39.7852 17.5419 43.4328 21.1906 47.9344 21.1906H50.3312V17.835H47.9344M47.9344 17.835C45.7885 17.835 43.9721 16.424 43.3617 14.4794H55.9563M47.9344 8.24766C45.9682 8.24766 44.2792 9.4311 43.5414 11.1239H52.3273C51.5896 9.4311 49.9005 8.24766 47.9344 8.24766Z" fill="black"/>
</svg>
